<svg width="299" height="323" viewBox="0 0 299 323" fill="none" xmlns="http://www.w3.org/2000/svg">
<path opacity="0.2" d="M261.43 291.01C261.43 308.38 211.14 322.47 149.1 322.47C87.06 322.47 36.77 308.38 36.77 291.01C36.77 273.63 87.06 259.55 149.1 259.55C211.14 259.55 261.43 273.64 261.43 291.01Z" fill="#414042"/>
<path d="M136.63 65.93C136.63 65.93 136.57 35.55 132.03 23.76L137.77 22.13C137.77 22.13 143.43 46.54 138.8 65.68" fill="#898C00"/>
<path d="M134.12 76.1099C130.05 85.4999 119.13 89.8199 109.73 85.7399C100.34 81.6699 96.02 70.7499 100.09 61.3599C104.17 51.9599 115.08 47.6499 124.48 51.7199C133.88 55.7899 138.19 66.7099 134.12 76.1099Z" fill="#92278F"/>
<path opacity="0.1" d="M133.69 60.4399C127.36 66.7099 114.7 77.0399 100.38 76.7199C102.24 80.6199 105.46 83.8899 109.73 85.7399C119.13 89.8199 130.05 85.4999 134.12 76.1099C136.39 70.8699 136.05 65.1699 133.69 60.4399Z" fill="#231F20"/>
<path opacity="0.1" d="M123.13 56.0899C123.15 58.4799 120.19 60.4499 116.51 60.4899C112.84 60.5199 109.84 58.6099 109.82 56.2099C109.79 53.8199 112.76 51.8499 116.43 51.8099C120.11 51.7799 123.1 53.6899 123.13 56.0899Z" fill="white"/>
<path d="M193.4 78.18C189.33 87.57 178.41 91.89 169.01 87.82C159.61 83.74 155.3 72.82 159.37 63.43C163.44 54.03 174.36 49.72 183.76 53.79C193.16 57.86 197.47 68.78 193.4 78.18Z" fill="#92278F"/>
<path opacity="0.1" d="M192.97 62.51C186.64 68.78 173.98 79.12 159.66 78.79C161.51 82.69 164.74 85.96 169.01 87.82C178.41 91.89 189.33 87.57 193.4 78.18C195.67 72.94 195.33 67.24 192.97 62.51Z" fill="#231F20"/>
<path opacity="0.1" d="M182.41 58.16C182.43 60.55 179.47 62.52 175.79 62.56C172.12 62.59 169.12 60.68 169.1 58.29C169.07 55.89 172.03 53.92 175.71 53.88C179.39 53.85 182.38 55.76 182.41 58.16Z" fill="white"/>
<path d="M119.36 101.22C115.29 110.61 104.38 114.93 94.98 110.85C85.58 106.78 81.27 95.86 85.34 86.47C89.41 77.07 100.33 72.76 109.73 76.83C119.12 80.9 123.44 91.82 119.36 101.22Z" fill="#6B1D6B"/>
<path opacity="0.1" d="M118.93 85.55C112.6 91.82 99.95 102.15 85.62 101.83C87.48 105.73 90.7 109 94.98 110.85C104.38 114.93 115.29 110.61 119.36 101.22C121.63 95.98 121.3 90.28 118.93 85.55Z" fill="#231F20"/>
<path opacity="0.1" d="M108.37 81.1901C108.4 83.5901 105.44 85.5601 101.76 85.6001C98.08 85.6301 95.09 83.7201 95.06 81.3201C95.04 78.9301 98 76.96 101.67 76.92C105.35 76.88 108.35 78.8001 108.37 81.1901Z" fill="white"/>
<path d="M141.37 104.84C137.3 114.24 126.38 118.55 116.98 114.48C107.58 110.41 103.27 99.49 107.34 90.09C111.41 80.69 122.33 76.38 131.73 80.45C141.13 84.53 145.44 95.44 141.37 104.84Z" fill="#92278F"/>
<path opacity="0.1" d="M140.94 89.17C134.61 95.44 121.95 105.78 107.63 105.45C109.49 109.35 112.71 112.62 116.98 114.48C126.38 118.55 137.3 114.24 141.37 104.84C143.64 99.61 143.3 93.9 140.94 89.17Z" fill="#231F20"/>
<path opacity="0.1" d="M130.38 84.8201C130.4 87.2201 127.44 89.1901 123.76 89.2201C120.09 89.2601 117.09 87.34 117.07 84.95C117.04 82.55 120 80.5801 123.68 80.5501C127.36 80.5101 130.35 82.4201 130.38 84.8201Z" fill="white"/>
<path d="M187.7 106.91C183.63 116.31 172.71 120.62 163.32 116.55C153.92 112.48 149.61 101.56 153.68 92.16C157.75 82.77 168.67 78.45 178.06 82.52C187.46 86.6 191.78 97.51 187.7 106.91Z" fill="#92278F"/>
<path opacity="0.1" d="M187.27 91.24C180.94 97.51 168.29 107.85 153.96 107.52C155.82 111.42 159.04 114.69 163.32 116.55C172.71 120.62 183.63 116.31 187.7 106.91C189.97 101.68 189.63 95.97 187.27 91.24Z" fill="#231F20"/>
<path opacity="0.1" d="M176.71 86.89C176.73 89.29 173.77 91.26 170.1 91.29C166.42 91.33 163.42 89.42 163.4 87.02C163.38 84.62 166.34 82.65 170.01 82.62C173.69 82.58 176.69 84.49 176.71 86.89Z" fill="white"/>
<path d="M207.12 102.25C203.05 111.65 192.13 115.96 182.73 111.89C173.33 107.82 169.02 96.8999 173.09 87.4999C177.16 78.1099 188.08 73.7899 197.48 77.8599C206.87 81.9399 211.19 92.8599 207.12 102.25Z" fill="#6B1D6B"/>
<path opacity="0.1" d="M206.69 86.58C200.36 92.85 187.7 103.19 173.38 102.86C175.23 106.76 178.46 110.03 182.73 111.89C192.13 115.96 203.05 111.65 207.12 102.25C209.39 97.02 209.05 91.31 206.69 86.58Z" fill="#231F20"/>
<path opacity="0.1" d="M196.13 82.23C196.15 84.63 193.19 86.6 189.51 86.63C185.84 86.67 182.84 84.76 182.81 82.36C182.79 79.96 185.75 77.99 189.43 77.96C193.1 77.92 196.1 79.83 196.13 82.23Z" fill="white"/>
<path d="M198.58 129.95C194.5 139.34 183.59 143.66 174.19 139.59C164.79 135.52 160.48 124.6 164.55 115.2C168.62 105.8 179.54 101.49 188.94 105.56C198.33 109.63 202.65 120.55 198.58 129.95Z" fill="#92278F"/>
<path opacity="0.1" d="M198.14 114.28C191.81 120.55 179.16 130.89 164.83 130.56C166.69 134.46 169.91 137.73 174.19 139.59C183.59 143.66 194.5 139.34 198.58 129.95C200.84 124.72 200.51 119.01 198.14 114.28Z" fill="#231F20"/>
<path opacity="0.1" d="M187.58 109.93C187.61 112.32 184.65 114.3 180.97 114.33C177.29 114.37 174.3 112.45 174.27 110.06C174.25 107.66 177.21 105.69 180.89 105.65C184.56 105.62 187.56 107.53 187.58 109.93Z" fill="white"/>
<path d="M131.53 130.47C127.46 139.86 116.54 144.18 107.14 140.1C97.75 136.03 93.43 125.11 97.5 115.72C101.58 106.32 112.5 102.01 121.89 106.08C131.29 110.15 135.6 121.07 131.53 130.47Z" fill="#92278F"/>
<path opacity="0.1" d="M131.1 114.8C124.77 121.07 112.11 131.4 97.79 131.08C99.65 134.98 102.87 138.25 107.14 140.1C116.54 144.18 127.46 139.86 131.53 130.47C133.8 125.23 133.46 119.53 131.1 114.8Z" fill="#231F20"/>
<path opacity="0.1" d="M120.54 110.45C120.56 112.84 117.6 114.81 113.92 114.85C110.25 114.88 107.25 112.97 107.23 110.57C107.2 108.18 110.17 106.21 113.84 106.17C117.52 106.14 120.52 108.05 120.54 110.45Z" fill="white"/>
<path d="M181.75 145.74C177.68 155.13 166.76 159.45 157.36 155.38C147.97 151.31 143.65 140.39 147.72 130.99C151.8 121.59 162.72 117.28 172.11 121.35C181.51 125.42 185.82 136.34 181.75 145.74Z" fill="#6B1D6B"/>
<path opacity="0.1" d="M181.32 130.07C174.99 136.34 162.33 146.68 148.01 146.35C149.87 150.25 153.09 153.52 157.36 155.38C166.76 159.45 177.68 155.13 181.75 145.74C184.02 140.51 183.68 134.8 181.32 130.07Z" fill="#231F20"/>
<path opacity="0.1" d="M170.76 125.72C170.78 128.11 167.82 130.09 164.14 130.12C160.47 130.16 157.47 128.24 157.45 125.85C157.42 123.45 160.39 121.48 164.06 121.44C167.74 121.41 170.73 123.32 170.76 125.72Z" fill="white"/>
<path d="M145.25 146C141.18 155.39 130.26 159.71 120.86 155.64C111.47 151.57 107.15 140.64 111.22 131.25C115.3 121.85 126.22 117.54 135.61 121.61C145.01 125.68 149.32 136.6 145.25 146Z" fill="#6B1D6B"/>
<path opacity="0.1" d="M144.82 130.33C138.49 136.6 125.83 146.94 111.51 146.61C113.37 150.51 116.59 153.78 120.86 155.64C130.26 159.71 141.18 155.39 145.25 146C147.52 140.76 147.18 135.06 144.82 130.33Z" fill="#231F20"/>
<path opacity="0.1" d="M134.26 125.98C134.28 128.37 131.32 130.34 127.64 130.38C123.97 130.42 120.97 128.5 120.95 126.11C120.92 123.71 123.89 121.74 127.56 121.7C131.24 121.67 134.24 123.58 134.26 125.98Z" fill="white"/>
<path d="M169.32 166.19C165.25 175.58 154.33 179.9 144.94 175.83C135.54 171.76 131.23 160.84 135.3 151.44C139.37 142.04 150.29 137.73 159.69 141.8C169.08 145.87 173.4 156.79 169.32 166.19Z" fill="#92278F"/>
<path opacity="0.1" d="M168.89 150.52C162.56 156.79 149.91 167.13 135.58 166.8C137.44 170.7 140.66 173.97 144.94 175.83C154.33 179.9 165.25 175.58 169.32 166.19C171.59 160.95 171.25 155.25 168.89 150.52Z" fill="#231F20"/>
<path opacity="0.1" d="M158.33 146.17C158.35 148.56 155.4 150.54 151.72 150.57C148.04 150.61 145.04 148.69 145.02 146.3C145 143.9 147.96 141.93 151.63 141.89C155.31 141.86 158.31 143.77 158.33 146.17Z" fill="white"/>
<path d="M165.27 67.05C161.2 76.44 150.28 80.76 140.88 76.68C131.49 72.61 127.17 61.69 131.24 52.3C135.32 42.9 146.23 38.59 155.63 42.66C165.03 46.73 169.34 57.65 165.27 67.05Z" fill="#6B1D6B"/>
<path opacity="0.1" d="M164.84 51.38C158.51 57.65 145.85 67.98 131.53 67.66C133.39 71.56 136.61 74.83 140.88 76.68C150.28 80.76 161.2 76.44 165.27 67.05C167.54 61.81 167.2 56.11 164.84 51.38Z" fill="#231F20"/>
<path opacity="0.1" d="M154.28 47.03C154.3 49.42 151.34 51.39 147.66 51.43C143.99 51.46 140.99 49.55 140.97 47.15C140.94 44.76 143.91 42.79 147.58 42.75C151.26 42.72 154.25 44.63 154.28 47.03Z" fill="white"/>
<path d="M161.3 93.71C157.23 103.1 146.31 107.42 136.91 103.35C127.52 99.28 123.2 88.36 127.27 78.96C131.35 69.56 142.26 65.25 151.66 69.32C161.06 73.39 165.37 84.31 161.3 93.71Z" fill="#92278F"/>
<path opacity="0.1" d="M160.87 78.04C154.54 84.31 141.88 94.65 127.56 94.32C129.42 98.22 132.64 101.49 136.91 103.35C146.31 107.42 157.23 103.1 161.3 93.71C163.57 88.47 163.23 82.77 160.87 78.04Z" fill="#231F20"/>
<path opacity="0.1" d="M150.31 73.69C150.33 76.08 147.37 78.06 143.69 78.09C140.02 78.13 137.02 76.21 137 73.82C136.97 71.42 139.93 69.45 143.61 69.41C147.29 69.38 150.28 71.29 150.31 73.69Z" fill="white"/>
<path d="M162.59 122.18C158.52 131.58 147.6 135.89 138.21 131.82C128.81 127.75 124.5 116.83 128.57 107.44C132.64 98.04 143.56 93.72 152.95 97.8C162.35 101.87 166.67 112.79 162.59 122.18Z" fill="#92278F"/>
<path opacity="0.1" d="M162.16 106.51C155.83 112.78 143.18 123.12 128.85 122.79C130.71 126.69 133.93 129.97 138.21 131.82C147.6 135.89 158.52 131.58 162.59 122.18C164.86 116.95 164.52 111.25 162.16 106.51Z" fill="#231F20"/>
<path opacity="0.1" d="M151.6 102.16C151.62 104.56 148.67 106.53 144.99 106.57C141.31 106.6 138.31 104.69 138.29 102.29C138.27 99.89 141.23 97.92 144.9 97.89C148.58 97.85 151.58 99.77 151.6 102.16Z" fill="white"/>
<path d="M291.99 161.33C291.99 213.22 288.99 279.51 148.06 279.51C7.14001 279.51 4.14 213.22 4.14 161.33C4.14 109.44 36.12 158.11 148.06 158.11C260.01 158.11 291.99 109.44 291.99 161.33Z" fill="#A97C50"/>
<path d="M67.97 84.92L72.82 80.58L73.13 75.2L75.18 68.73L76.28 65.5L84.62 60.91L92.02 63.97L93.04 68.14L91.51 67.46L91.34 66.35L90.75 65.16C90.75 65.16 89.64 64.48 89.38 64.48C89.13 64.48 86.32 64.39 86.32 64.39L84.71 64.57L82.66 65.25C82.66 65.25 81.05 66.78 80.62 67.03C80.2 67.29 78.92 67.97 78.92 67.97C78.92 67.97 77.39 71.2 77.39 71.54C77.39 71.88 77.73 74.09 77.73 74.09C77.73 74.09 78.07 75.8 78.15 76.14C78.24 76.48 78.32 77.24 78.32 77.24C78.32 77.24 78.92 78.77 79.09 79.11C79.26 79.45 81.64 82.86 81.64 82.86L83.34 85.58" fill="#594A42"/>
<path d="M149.02 152.02C149.02 192.24 116.42 224.85 76.2 224.85C35.98 224.85 3.37 192.24 3.37 152.02C3.37 111.8 35.98 79.2001 76.2 79.2001C116.42 79.2001 149.02 111.8 149.02 152.02Z" fill="#898C00"/>
<path d="M53.13 221.12C50.0833 220.1 47.1333 218.893 44.28 217.5C44.11 216.69 44.03 216.13 44.03 216.13L44.09 210.22L40.85 202.7C40.85 202.7 40.53 197.95 40.83 195.66C41.13 193.36 41.44 187.88 41.34 186.52C41.25 185.17 40.88 176.33 42.57 174.39C44.26 172.46 44.13 167.24 44.25 165.64C44.37 164.04 43.87 159.98 43.94 157.7C44.01 155.42 44.03 152.24 45.37 148.51C46.71 144.78 47.42 138.59 47.18 134.97C46.93 131.35 46.29 125.25 46.38 123.2C46.47 121.14 48.16 119.21 51.19 116.96C54.22 114.71 50.83 108.34 51.26 101.26C51.58 96.1101 56.63 86.1801 59.35 81.1601C61.3633 80.6801 63.4067 80.2901 65.48 79.9901C65.11 83.5101 57.47 92.9401 56.25 94.3301C54.99 95.7801 55.34 97.5801 55.5 100.07C55.67 102.56 54.86 117.4 52.99 120.02C51.12 122.65 51.65 123.75 51.79 125.79C51.93 127.82 51.75 131.93 51.45 137.64C51.16 143.34 50.31 144.31 49.49 148.91C48.66 153.51 47.23 155.88 47.29 156.79C47.35 157.69 49.18 164.62 49.96 169.34C50.73 174.07 48.93 177.6 47.54 180.65C46.16 183.7 45.24 186.94 44.59 190.85C43.95 194.76 45.59 195.56 46.78 199.57C47.96 203.59 48.74 211.72 49.75 213.24C50.68 214.64 51.81 219.06 53.13 221.12ZM25.86 201.02C25.78 199.2 25.53 193.31 25.4 190.37C25.27 187.42 24.92 179.26 25.07 177.66C25.23 176.07 26.46 173.06 26.4 171.7C26.34 170.34 26.76 158.97 26.62 155.79C26.48 152.62 25.95 140.38 25.89 139.02C25.83 137.66 25.83 132.44 26.4 129.92C26.97 127.39 26.19 119.93 28.29 115.98C30.39 112.03 39.75 97.5401 40.84 96.3601C41.44 95.7001 43.06 90.7501 44.38 86.5001C42.8333 87.2534 41.3167 88.0601 39.83 88.9201C34.56 96.1801 26.55 107.79 25 113.4C22.65 121.91 20.33 136.54 20.61 137.66C20.88 138.79 21.54 159.19 21.54 159.19C21.54 159.19 22.14 172.79 22.19 173.93C22.24 175.06 23.02 182.75 23.02 182.75L22.77 197.75L24.42 203.23C26.1533 204.983 27.97 206.647 29.87 208.22C28.21 205.87 25.92 202.36 25.86 201.02ZM132.51 186.22C134.07 177.54 135.02 162.75 134.64 161.66C134.26 160.56 131.72 140.3 131.72 140.3C131.72 140.3 129.87 126.82 129.72 125.69C129.56 124.57 128.07 116.99 128.07 116.99L126.94 102.03L125.46 98.4001C123.893 96.9534 122.26 95.5801 120.56 94.2801C122.03 96.1201 123.42 98.1001 123.55 99.0601C123.8 100.86 124.6 106.7 125 109.62C125.4 112.55 126.51 120.64 126.5 122.24C126.49 123.84 125.54 126.95 125.72 128.3C125.91 129.65 126.55 141.01 126.98 144.16C127.41 147.31 129.07 159.44 129.25 160.79C129.44 162.14 129.92 167.34 129.59 169.9C129.25 172.47 130.72 179.83 128.99 183.96C127.27 188.08 119.29 203.37 118.31 204.65C117.85 205.26 116.93 209.12 116.09 212.95C118.103 211.63 120.043 210.217 121.91 208.71C126.3 201.12 131.62 191.19 132.51 186.22ZM95.42 222.28C97.6 221.687 99.7367 220.997 101.83 220.21C104.14 214.69 107.63 205.5 107.48 200.73C107.25 193.64 103.29 187.62 106.1 185.1C108.91 182.57 110.41 180.49 110.31 178.44C110.21 176.39 109.01 170.38 108.43 166.8C107.85 163.21 108 156.98 108.99 153.15C109.97 149.31 109.69 146.14 109.56 143.86C109.42 141.59 108.54 137.59 108.51 135.99C108.48 134.38 107.87 129.2 109.38 127.11C110.88 125.03 109.69 116.26 109.48 114.92C109.26 113.58 109.06 108.09 109.15 105.78C109.24 103.47 108.48 98.7601 108.48 98.7601L104.56 91.5801L104.07 85.6901C104.07 85.6901 103.96 85.2501 103.77 84.6001C100.777 83.3734 97.6933 82.3467 94.52 81.5201C96.03 83.4301 97.58 87.7801 98.64 89.0901C99.79 90.5101 101.32 98.5401 102.86 102.43C104.41 106.31 106.12 106.96 105.84 110.91C105.56 114.86 104.95 118.18 103.85 121.34C102.75 124.51 101.28 128.19 102.49 132.82C103.69 137.46 106.16 144.18 106.3 145.08C106.45 145.97 105.24 148.47 104.85 153.13C104.45 157.79 103.7 158.83 103.93 164.54C104.16 170.24 104.37 174.35 104.69 176.36C105.02 178.38 105.64 179.43 104.03 182.21C102.41 185 102.97 199.85 103.37 202.31C103.76 204.78 104.28 206.53 103.15 208.09C102.15 209.48 96.36 218.15 95.42 222.28ZM79.75 224.76C78.94 222.1 78.07 219.08 77.9 217.7C77.56 214.98 77.56 212.94 77.56 209.88C77.56 206.81 77.9 201.71 77.9 201.71C77.9 201.71 78.92 204.09 77.9 192.52C76.88 180.95 76.54 178.23 76.54 176.87C76.54 175.51 78.24 173.46 78.92 169.72C79.6 165.98 80.62 163.26 80.62 158.83C80.62 154.41 81.98 144.88 80.62 138.07C79.26 131.27 77.9 129.9 77.56 125.14C77.22 120.38 73.81 125.48 77.22 114.93C80.62 104.38 82.32 103.02 82.66 96.8901C83 90.7701 82.66 88.7301 81.64 84.9801C81.22 83.4301 80.74 81.2901 80.32 79.3201C78.9533 79.2401 77.58 79.2001 76.2 79.2001C75.86 79.2001 75.52 79.2034 75.18 79.2101C73.69 82.9501 71.23 90.2101 72.45 94.8501C74.16 101.32 74.84 106.76 74.5 115.95C74.16 125.14 72.79 137.73 73.13 140.45C73.47 143.18 76.88 156.45 75.18 159.51C73.47 162.57 72.45 175.17 71.77 177.55C71.09 179.93 71.77 191.84 72.11 193.88C72.45 195.92 73.13 200.69 73.13 204.09C73.13 207.49 72.11 214.3 72.11 215.32C72.11 216.05 72.98 221.66 73.48 224.79C74.38 224.83 75.2867 224.85 76.2 224.85C77.3933 224.85 78.5767 224.82 79.75 224.76Z" fill="#636302"/>
<path opacity="0.2" d="M11.4 185.29C23.48 208.78 47.96 224.85 76.2 224.85C116.42 224.85 149.02 192.24 149.02 152.02C149.02 135.88 143.77 120.97 134.88 108.9C125.33 132.45 88.45 207.12 11.4 185.29Z" fill="#414042"/>
<path opacity="0.3" d="M62.22 141.43C47.12 157.16 26.97 162.3 17.21 152.93C7.45 143.56 11.77 123.21 26.88 107.49C41.98 91.76 62.13 86.61 71.89 95.99C81.65 105.36 77.32 125.7 62.22 141.43Z" fill="white"/>
<mask id="mask0_207_162" style="mask-type:luminance" maskUnits="userSpaceOnUse" x="36" y="133" width="124" height="101">
<path d="M122.26 133.89L36.57 196.36L159.27 233.27L122.26 133.89Z" fill="white"/>
</mask>
<g mask="url(#mask0_207_162)">
<path d="M46.93 111.46C34.99 151.15 57.49 193.01 97.18 204.95C136.87 216.89 178.73 194.39 190.67 154.7L46.93 111.46Z" fill="#898C00"/>
<path d="M51.71 112.9C40.57 149.95 61.57 189.02 98.62 200.17C135.67 211.31 174.74 190.31 185.89 153.26L51.71 112.9Z" fill="white"/>
<path d="M54.48 113.73C43.8 149.25 63.93 186.71 99.45 197.4C134.97 208.08 172.43 187.95 183.12 152.43L54.48 113.73Z" fill="#DD2C2C"/>
<path opacity="0.6" d="M79.71 133.62C79.01 135.96 77.12 137.46 75.49 136.97C73.86 136.48 73.11 134.19 73.82 131.85C74.52 129.51 76.41 128.01 78.04 128.5C79.67 128.99 80.42 131.28 79.71 133.62Z" fill="#414042"/>
<path opacity="0.6" d="M96.13 138.56C95.42 140.9 93.53 142.4 91.9 141.91C90.28 141.42 89.53 139.12 90.23 136.79C90.94 134.44 92.83 132.94 94.45 133.44C96.08 133.92 96.83 136.22 96.13 138.56Z" fill="#414042"/>
<path opacity="0.6" d="M112.54 143.5C111.84 145.83 109.95 147.34 108.32 146.85C106.69 146.36 105.94 144.06 106.64 141.72C107.35 139.38 109.24 137.88 110.87 138.37C112.49 138.86 113.24 141.16 112.54 143.5Z" fill="#414042"/>
<path opacity="0.6" d="M128.95 148.43C128.25 150.77 126.36 152.27 124.73 151.78C123.1 151.29 122.35 149 123.06 146.66C123.76 144.32 125.65 142.82 127.28 143.31C128.91 143.8 129.66 146.09 128.95 148.43Z" fill="#414042"/>
<path opacity="0.6" d="M145.37 153.37C144.66 155.71 142.77 157.21 141.14 156.72C139.51 156.23 138.77 153.94 139.47 151.6C140.17 149.26 142.06 147.76 143.69 148.25C145.32 148.74 146.07 151.03 145.37 153.37Z" fill="#414042"/>
<path opacity="0.6" d="M161.78 158.31C161.07 160.65 159.19 162.15 157.56 161.66C155.93 161.17 155.18 158.87 155.88 156.53C156.59 154.19 158.48 152.69 160.11 153.18C161.73 153.67 162.48 155.97 161.78 158.31Z" fill="#414042"/>
<path opacity="0.6" d="M67.45 145.5C66.75 147.84 64.86 149.34 63.23 148.85C61.6 148.36 60.85 146.07 61.56 143.73C62.26 141.39 64.15 139.89 65.78 140.38C67.41 140.87 68.16 143.16 67.45 145.5Z" fill="#414042"/>
<path opacity="0.6" d="M83.86 150.44C83.16 152.78 81.27 154.28 79.64 153.79C78.01 153.3 77.26 151 77.97 148.67C78.67 146.32 80.56 144.82 82.19 145.31C83.82 145.8 84.57 148.1 83.86 150.44Z" fill="#414042"/>
<path opacity="0.6" d="M100.28 155.38C99.57 157.72 97.68 159.22 96.05 158.73C94.43 158.24 93.68 155.94 94.38 153.6C95.09 151.26 96.98 149.76 98.6 150.25C100.23 150.74 100.98 153.03 100.28 155.38Z" fill="#414042"/>
<path opacity="0.6" d="M116.69 160.31C115.99 162.65 114.1 164.15 112.47 163.66C110.84 163.17 110.09 160.88 110.79 158.54C111.5 156.2 113.39 154.7 115.02 155.19C116.65 155.68 117.39 157.97 116.69 160.31Z" fill="#414042"/>
<path opacity="0.6" d="M133.1 165.25C132.4 167.59 130.51 169.09 128.88 168.6C127.25 168.11 126.5 165.82 127.21 163.48C127.91 161.14 129.8 159.64 131.43 160.13C133.06 160.62 133.81 162.91 133.1 165.25Z" fill="#414042"/>
<path opacity="0.6" d="M149.52 170.19C148.81 172.53 146.92 174.03 145.29 173.54C143.66 173.05 142.92 170.75 143.62 168.41C144.33 166.07 146.21 164.57 147.84 165.06C149.47 165.55 150.22 167.85 149.52 170.19Z" fill="#414042"/>
<path opacity="0.6" d="M162.74 174.17C162.04 176.51 160.15 178.01 158.52 177.52C156.89 177.03 156.14 174.73 156.85 172.39C157.55 170.05 159.44 168.55 161.07 169.04C162.7 169.53 163.45 171.82 162.74 174.17Z" fill="#414042"/>
<path opacity="0.6" d="M72.84 162.24C72.14 164.58 70.25 166.08 68.62 165.59C66.99 165.1 66.24 162.81 66.95 160.47C67.65 158.13 69.54 156.63 71.17 157.12C72.8 157.61 73.55 159.9 72.84 162.24Z" fill="#414042"/>
<path opacity="0.6" d="M91.17 167.75C90.46 170.09 88.57 171.59 86.95 171.1C85.32 170.61 84.57 168.32 85.27 165.98C85.98 163.64 87.87 162.14 89.49 162.63C91.12 163.12 91.87 165.41 91.17 167.75Z" fill="#414042"/>
<path opacity="0.6" d="M105.51 172.07C104.81 174.41 102.91 175.91 101.29 175.42C99.66 174.93 98.91 172.63 99.61 170.29C100.32 167.95 102.21 166.45 103.84 166.94C105.46 167.43 106.21 169.73 105.51 172.07Z" fill="#414042"/>
<path opacity="0.6" d="M122.72 177.24C122.01 179.59 120.12 181.08 118.5 180.59C116.87 180.1 116.12 177.81 116.82 175.47C117.53 173.13 119.42 171.63 121.05 172.12C122.67 172.61 123.42 174.9 122.72 177.24Z" fill="#414042"/>
<path opacity="0.6" d="M136.74 181.46C136.04 183.8 134.15 185.3 132.52 184.81C130.89 184.32 130.14 182.03 130.85 179.69C131.55 177.35 133.44 175.85 135.07 176.34C136.7 176.83 137.45 179.12 136.74 181.46Z" fill="#414042"/>
<path opacity="0.6" d="M149.81 185.39C149.1 187.73 147.21 189.23 145.58 188.74C143.96 188.25 143.21 185.96 143.91 183.62C144.62 181.28 146.51 179.78 148.13 180.27C149.76 180.76 150.51 183.05 149.81 185.39Z" fill="#414042"/>
<path opacity="0.6" d="M82.66 177.53C81.96 179.87 80.07 181.37 78.44 180.88C76.81 180.39 76.06 178.1 76.77 175.76C77.47 173.42 79.36 171.92 80.99 172.41C82.62 172.9 83.37 175.19 82.66 177.53Z" fill="#414042"/>
<path opacity="0.6" d="M98.31 185.02C97.61 187.36 95.72 188.86 94.09 188.37C92.46 187.88 91.71 185.59 92.42 183.25C93.12 180.9 95.01 179.4 96.64 179.89C98.27 180.38 99.02 182.68 98.31 185.02Z" fill="#414042"/>
<path opacity="0.6" d="M114.85 188.95C114.15 191.29 112.26 192.79 110.63 192.3C109 191.81 108.25 189.52 108.96 187.18C109.66 184.84 111.55 183.34 113.18 183.83C114.81 184.32 115.56 186.61 114.85 188.95Z" fill="#414042"/>
<path opacity="0.6" d="M131.33 192.52C130.63 194.86 128.74 196.36 127.11 195.87C125.48 195.38 124.73 193.09 125.43 190.75C126.14 188.41 128.03 186.91 129.66 187.4C131.29 187.88 132.03 190.18 131.33 192.52Z" fill="#414042"/>
<path opacity="0.2" d="M184.49 158.73L154.44 151.64C128.19 173.94 89.75 192.98 44.1 174.63C53.66 194.05 71.51 209.2 94.22 214.55C134.56 224.06 174.98 199.07 184.49 158.73Z" fill="#414042"/>
<path opacity="0.3" d="M111.74 162.3C103.19 167.25 94.8 168.73 93 165.61C91.19 162.5 96.67 155.96 105.22 151.02C113.77 146.08 122.16 144.59 123.96 147.71C125.76 150.82 120.29 157.36 111.74 162.3Z" fill="white"/>
</g>
<path d="M268.21 47.44L274.44 46.54L280.29 120.7L275.98 121.33L268.21 47.44Z" fill="#8DC63F"/>
<path d="M289.1 55.9L294.88 58.36L267.31 127.54L263.31 125.84L289.1 55.9Z" fill="#85B539"/>
<path d="M276.93 36.0601L283.18 36.3201L277.27 110.86L272.94 110.67L276.93 36.0601Z" fill="#85B539"/>
<path d="M286.03 95.9601C285.59 98.6701 281.08 100.19 275.97 99.3501C270.86 98.5201 267.08 95.6501 267.52 92.9401C267.96 90.2301 272.46 88.7101 277.57 89.5401C282.69 90.3801 286.47 93.2501 286.03 95.9601Z" fill="#85B539"/>
<path d="M257.61 122.91C263.5 82.0801 268.68 92.6301 276.77 93.8001C284.87 94.9601 292.81 86.3101 286.92 127.13C281.03 167.96 266.8 220.17 258.71 219.01C250.61 217.84 251.72 163.73 257.61 122.91Z" fill="#EA8415"/>
<path d="M278.98 141.59C281.33 141.98 283.34 142.48 284.34 142.9C284.3 143.147 284.257 143.397 284.21 143.65C283.12 143.72 281.06 143.56 278.72 143.18C275.32 142.62 272.61 141.81 272.68 141.38C272.75 140.94 275.57 141.04 278.98 141.59ZM273.05 180.91C269.64 180.35 266.82 180.26 266.75 180.69C266.68 181.13 269.38 181.94 272.79 182.49C273.703 182.637 274.553 182.753 275.34 182.84C275.467 182.373 275.593 181.903 275.72 181.43C274.913 181.243 274.023 181.07 273.05 180.91ZM283.31 112.09C285.54 112.45 287.51 112.62 288.64 112.57C288.66 112.277 288.68 111.99 288.7 111.71C287.64 111.32 285.75 110.86 283.57 110.5C280.16 109.95 277.34 109.85 277.27 110.29C277.2 110.72 279.91 111.53 283.31 112.09ZM255.98 161.07C259.39 161.62 262.21 161.72 262.28 161.28C262.35 160.84 259.65 160.04 256.24 159.48C255.4 159.347 254.607 159.24 253.86 159.16C253.833 159.66 253.803 160.157 253.77 160.65C254.457 160.797 255.193 160.937 255.98 161.07ZM262.52 99.2101C262.413 99.5367 262.303 99.8734 262.19 100.22C263.29 100.58 264.98 100.97 266.89 101.28C270.29 101.84 273.11 101.93 273.19 101.5C273.26 101.06 270.55 100.26 267.14 99.7001C265.33 99.4001 263.68 99.2401 262.52 99.2101ZM270.97 124.04C271.04 123.6 268.33 122.8 264.93 122.24C261.52 121.68 258.7 121.59 258.62 122.02C258.55 122.46 261.26 123.27 264.67 123.82C268.07 124.38 270.89 124.48 270.97 124.04Z" fill="#D17111"/>
<path opacity="0.2" d="M286.92 127.13C287.153 125.543 287.363 124.027 287.55 122.58C282.04 145.57 270.88 179.61 252.95 181.01C252.64 202.19 254.32 218.37 258.71 219.01C266.8 220.17 281.03 167.96 286.92 127.13Z" fill="#414042"/>
<path opacity="0.3" d="M274.33 126.29C272.19 139.4 267.8 149.59 264.52 149.06C261.25 148.52 260.33 137.46 262.47 124.36C264.61 111.25 269 101.06 272.28 101.59C275.55 102.13 276.47 113.19 274.33 126.29Z" fill="white"/>
<path d="M226.73 28.5L232.73 26.6L250.46 98.85L246.31 100.16L226.73 28.5Z" fill="#8DC63F"/>
<path d="M248.71 33.48L254.81 34.98L238.75 107.69L234.53 106.66L248.71 33.48Z" fill="#85B539"/>
<path d="M233.5 15.86L239.71 15.11L245.89 89.63L241.59 90.14L233.5 15.86Z" fill="#85B539"/>
<path d="M252.14 73.51C252.14 76.26 247.94 78.48 242.76 78.48C237.58 78.48 233.38 76.26 233.38 73.51C233.38 70.77 237.58 68.54 242.76 68.54C247.94 68.54 252.14 70.77 252.14 73.51Z" fill="#85B539"/>
<path d="M228.43 104.69C227.66 63.45 234.47 73.02 242.65 72.87C250.83 72.72 257.28 62.9 258.04 104.13C258.81 145.37 253.18 199.2 245.01 199.35C236.83 199.5 229.2 145.92 228.43 104.69Z" fill="#F7941E"/>
<path d="M252.54 119.68C254.91 119.68 256.98 119.85 258.04 120.1C258.033 120.36 258.027 120.617 258.02 120.87C256.96 121.12 254.9 121.29 252.54 121.29C249.08 121.29 246.29 120.93 246.29 120.48C246.29 120.04 249.08 119.68 252.54 119.68ZM253.02 159.44C249.56 159.44 246.77 159.8 246.77 160.24C246.77 160.69 249.56 161.05 253.02 161.05C253.94 161.043 254.797 161.017 255.59 160.97C255.643 160.49 255.693 160.007 255.74 159.52C254.913 159.467 254.007 159.44 253.02 159.44ZM252.06 89.86C254.31 89.86 256.28 89.71 257.39 89.48C257.363 89.1933 257.337 88.91 257.31 88.63C256.2 88.41 254.26 88.26 252.06 88.26C248.6 88.26 245.8 88.62 245.8 89.06C245.8 89.5 248.6 89.86 252.06 89.86ZM232.98 142.61C236.43 142.61 239.23 142.25 239.23 141.81C239.23 141.36 236.43 141 232.98 141C232.127 141.007 231.327 141.03 230.58 141.07C230.627 141.563 230.677 142.057 230.73 142.55C231.43 142.59 232.18 142.61 232.98 142.61ZM229.46 80.51C229.4 80.85 229.343 81.2 229.29 81.56C230.44 81.74 232.17 81.85 234.1 81.85C237.55 81.85 240.35 81.49 240.35 81.05C240.35 80.6 237.55 80.24 234.1 80.24C232.26 80.24 230.6 80.35 229.46 80.51ZM241.8 103.65C241.8 103.21 239 102.85 235.54 102.85C232.09 102.85 229.29 103.21 229.29 103.65C229.29 104.09 232.09 104.45 235.54 104.45C239 104.45 241.8 104.09 241.8 103.65Z" fill="#E58013"/>
<path opacity="0.2" d="M258.04 104.13C258.013 102.523 257.977 100.993 257.93 99.54C256.19 123.11 250.67 158.51 233.2 162.78C236.31 183.74 240.57 199.43 245.01 199.35C253.18 199.2 258.81 145.37 258.04 104.13Z" fill="#414042"/>
<path opacity="0.3" d="M245.48 105.33C245.48 118.62 242.79 129.38 239.47 129.38C236.15 129.38 233.46 118.62 233.46 105.33C233.46 92.05 236.15 81.29 239.47 81.29C242.79 81.29 245.48 92.05 245.48 105.33Z" fill="white"/>
<path d="M203.04 67.34C203.04 67.34 203.95 51.33 201.92 44.97L204.99 44.29C204.99 44.29 207.22 57.33 204.19 67.28" fill="#594A42"/>
<path d="M181.29 123.6C180.857 123.587 180.43 123.57 180.01 123.55C179.59 123.543 179.163 123.537 178.73 123.53L181.29 123.6Z" fill="#DD2C2C"/>
<path d="M243.36 134.35C239.81 117.26 227.03 102.22 221.26 82.4C215.48 62.58 204.47 65.12 204.47 65.12C204.47 65.12 193.61 62 186.8 81.48C179.98 100.97 166.42 115.31 161.96 132.18C157.56 148.86 165.06 180.97 201.35 182.67C237.68 182.9 246.88 151.24 243.36 134.35Z" fill="#ABB70F"/>
<path d="M194.71 55.3901C199.02 53.1201 203.01 53.4101 204.22 55.7201C205.44 58.0201 203.43 61.4801 199.12 63.7501C194.81 66.0301 188.61 63.9501 188.61 63.9501C188.61 63.9501 190.4 57.6701 194.71 55.3901Z" fill="#ABB70F"/>
<path opacity="0.2" d="M223.89 90.04C222.63 109.55 214.97 174.87 168.51 166.36C174.75 175.13 185.19 181.91 201.35 182.67C237.68 182.9 246.88 151.24 243.36 134.35C240.28 119.52 230.26 106.24 223.89 90.04Z" fill="#414042"/>
<path opacity="0.3" d="M202.43 101.45C198.01 112.04 189.81 118.68 184.1 116.3C178.4 113.92 181.58 104.96 186 94.3801C190.41 83.8001 194.39 75.6001 200.1 77.9801C205.8 80.3601 206.85 90.8701 202.43 101.45Z" fill="white"/>
<path d="M267.05 174.54C264.67 157.25 252.95 141.37 248.54 121.21C244.13 101.04 232.97 102.82 232.97 102.82C232.97 102.82 222.35 98.9699 214.22 117.94C206.09 136.92 191.59 150.3 185.99 166.83C180.45 183.17 185.75 215.71 221.84 219.88C258.07 222.59 269.4 191.63 267.05 174.54Z" fill="#C5C91C"/>
<g opacity="0.2">
<path d="M251.98 180.44C250.37 197.37 237.72 210.02 223.73 208.68C209.74 207.35 199.7 192.55 201.31 175.62C202.92 158.69 215.57 146.05 229.56 147.38C243.55 148.71 253.59 163.51 251.98 180.44Z" fill="white"/>
</g>
<path d="M244.74 179.75C243.59 191.84 234.56 200.88 224.56 199.93C214.57 198.97 207.4 188.4 208.55 176.31C209.7 164.22 218.73 155.18 228.73 156.13C238.72 157.09 245.89 167.66 244.74 179.75Z" fill="#7A231A"/>
<path opacity="0.3" d="M217.8 163.82C221.48 160.15 226.07 158.78 228.06 160.77C230.04 162.75 227.15 165.96 223.46 169.64C219.78 173.31 216.69 176.07 214.71 174.08C212.73 172.09 214.11 167.5 217.8 163.82Z" fill="white"/>
<path d="M183.43 129.4C183.58 124.92 180.86 120.65 176.4 119.05C172.02 117.48 167.3 118.97 164.55 122.41C151.73 124.44 138.43 137.41 131.81 155.88C125.15 174.46 127.25 193.03 136 202.69C136.18 206.87 138.83 210.72 143.01 212.22C147.26 213.75 151.84 212.38 154.62 209.16C167.38 207.04 180.58 194.1 187.17 175.72C193.71 157.45 191.8 139.19 183.43 129.4Z" fill="#FEDE00"/>
<path opacity="0.1" d="M128.15 182.8C128.95 190.9 131.66 197.9 136 202.69C136.18 206.87 138.83 210.72 143.01 212.22C147.26 213.75 151.84 212.38 154.62 209.16C167.38 207.04 180.58 194.1 187.17 175.72C191.22 164.41 192.03 153.11 190.07 143.81C179.92 154.82 153.2 182.72 128.15 182.8Z" fill="#414042"/>
<path opacity="0.3" d="M163.31 155.47C155.42 165.5 144.9 170.39 139.81 166.39C134.73 162.39 137.01 151.01 144.9 140.98C152.79 130.95 163.31 126.06 168.4 130.06C173.48 134.06 171.21 145.44 163.31 155.47Z" fill="white"/>
<path d="M226.97 200.79C221.56 219.96 201.63 231.12 182.45 225.7C163.28 220.29 152.13 200.36 157.54 181.18C162.96 162.01 182.89 150.86 202.06 156.27C221.23 161.69 232.39 181.62 226.97 200.79Z" fill="#FEDE00"/>
<path opacity="0.6" d="M223.33 199.76C218.48 216.92 200.64 226.9 183.48 222.06C166.32 217.21 156.34 199.37 161.19 182.21C166.03 165.06 183.87 155.07 201.03 159.92C218.19 164.77 228.17 182.6 223.33 199.76Z" fill="white"/>
<path d="M205.14 172.69C202.32 182.7 196.59 189.85 192.36 188.66C188.14 187.46 187 178.38 189.83 168.36C192.66 158.34 195.59 161.05 199.82 162.25C204.05 163.44 207.97 162.67 205.14 172.69Z" fill="#FEDE00"/>
<path opacity="0.6" d="M193.9 166.04C193.65 166.9 193.05 167.48 192.56 167.34C192.06 167.2 191.85 166.39 192.1 165.53C192.34 164.67 192.94 164.09 193.44 164.23C193.93 164.37 194.14 165.18 193.9 166.04Z" fill="white"/>
<path opacity="0.6" d="M199.43 165.77C199.19 166.63 198.59 167.21 198.09 167.07C197.6 166.93 197.39 166.12 197.63 165.26C197.88 164.4 198.48 163.82 198.97 163.96C199.47 164.1 199.68 164.91 199.43 165.77Z" fill="white"/>
<path opacity="0.6" d="M203.55 169.03C203.31 169.89 202.71 170.47 202.21 170.33C201.71 170.19 201.51 169.38 201.75 168.52C201.99 167.66 202.59 167.08 203.09 167.22C203.59 167.36 203.79 168.17 203.55 169.03Z" fill="white"/>
<path opacity="0.6" d="M199.13 172.24C198.88 173.1 198.28 173.68 197.79 173.55C197.29 173.41 197.08 172.6 197.33 171.73C197.57 170.88 198.17 170.29 198.67 170.43C199.16 170.57 199.37 171.38 199.13 172.24Z" fill="white"/>
<path opacity="0.6" d="M194 171.63C193.75 172.5 193.15 173.08 192.66 172.94C192.16 172.8 191.95 171.99 192.2 171.13C192.44 170.27 193.04 169.69 193.53 169.83C194.03 169.97 194.24 170.78 194 171.63Z" fill="white"/>
<path opacity="0.6" d="M203.12 175C202.88 175.86 202.28 176.44 201.79 176.3C201.29 176.16 201.08 175.35 201.33 174.49C201.57 173.63 202.17 173.05 202.66 173.19C203.16 173.33 203.37 174.14 203.12 175Z" fill="white"/>
<path opacity="0.6" d="M198.51 179.26C198.27 180.12 197.67 180.7 197.17 180.56C196.67 180.42 196.47 179.61 196.71 178.75C196.95 177.9 197.55 177.31 198.05 177.45C198.55 177.59 198.75 178.4 198.51 179.26Z" fill="white"/>
<path opacity="0.6" d="M192.93 177.64C192.69 178.49 192.09 179.08 191.59 178.94C191.1 178.8 190.89 177.99 191.13 177.13C191.37 176.27 191.98 175.68 192.47 175.83C192.97 175.97 193.17 176.77 192.93 177.64Z" fill="white"/>
<path opacity="0.6" d="M194.9 185.33C194.66 186.19 194.06 186.77 193.57 186.63C193.07 186.49 192.86 185.68 193.11 184.82C193.35 183.96 193.95 183.38 194.44 183.52C194.94 183.66 195.15 184.47 194.9 185.33Z" fill="white"/>
<path d="M182 170.42C189.26 177.88 192.59 186.41 189.44 189.47C186.3 192.54 177.86 188.98 170.6 181.52C163.34 174.07 167.15 172.88 170.3 169.81C173.45 166.75 174.74 162.97 182 170.42Z" fill="#FEDE00"/>
<path opacity="0.6" d="M170.62 176.84C171.25 177.48 171.45 178.29 171.08 178.65C170.71 179.01 169.91 178.79 169.28 178.15C168.66 177.51 168.46 176.7 168.83 176.34C169.2 175.98 170 176.2 170.62 176.84Z" fill="white"/>
<path opacity="0.6" d="M173.16 171.91C173.78 172.55 173.98 173.36 173.61 173.72C173.24 174.08 172.44 173.85 171.82 173.21C171.19 172.57 170.99 171.76 171.36 171.4C171.73 171.04 172.53 171.27 173.16 171.91Z" fill="white"/>
<path opacity="0.6" d="M178.04 169.97C178.66 170.62 178.87 171.43 178.5 171.79C178.13 172.14 177.32 171.92 176.7 171.28C176.08 170.64 175.88 169.83 176.24 169.47C176.61 169.11 177.42 169.34 178.04 169.97Z" fill="white"/>
<path opacity="0.6" d="M178.61 175.41C179.23 176.05 179.44 176.86 179.07 177.22C178.7 177.58 177.9 177.36 177.27 176.72C176.65 176.08 176.44 175.27 176.81 174.91C177.18 174.55 177.99 174.77 178.61 175.41Z" fill="white"/>
<path opacity="0.6" d="M175.52 179.55C176.14 180.19 176.35 181 175.98 181.36C175.61 181.72 174.8 181.5 174.18 180.86C173.56 180.22 173.35 179.41 173.72 179.05C174.09 178.69 174.9 178.91 175.52 179.55Z" fill="white"/>
<path opacity="0.6" d="M183 173.33C183.62 173.97 183.83 174.78 183.46 175.14C183.09 175.5 182.28 175.27 181.66 174.63C181.04 173.99 180.83 173.18 181.2 172.82C181.57 172.46 182.38 172.69 183 173.33Z" fill="white"/>
<path opacity="0.6" d="M184.38 179.46C185 180.1 185.21 180.91 184.84 181.27C184.47 181.63 183.66 181.4 183.04 180.76C182.42 180.12 182.21 179.31 182.58 178.95C182.95 178.59 183.76 178.82 184.38 179.46Z" fill="white"/>
<path opacity="0.6" d="M180.18 183.47C180.81 184.11 181.01 184.92 180.64 185.28C180.27 185.64 179.47 185.42 178.84 184.78C178.22 184.14 178.01 183.33 178.39 182.97C178.76 182.61 179.56 182.83 180.18 183.47Z" fill="white"/>
<path opacity="0.6" d="M187.83 185.61C188.46 186.25 188.66 187.06 188.29 187.42C187.92 187.78 187.12 187.56 186.5 186.92C185.87 186.28 185.67 185.47 186.04 185.11C186.41 184.75 187.21 184.97 187.83 185.61Z" fill="white"/>
<path d="M168.47 189.33C178.56 186.77 187.61 188.15 188.69 192.41C189.77 196.67 182.47 202.2 172.39 204.76C162.3 207.32 163.17 203.42 162.09 199.16C161.01 194.9 158.39 191.89 168.47 189.33Z" fill="#FEDE00"/>
<path opacity="0.6" d="M168.34 202.39C169.21 202.18 170.01 202.4 170.14 202.9C170.27 203.4 169.67 203.99 168.8 204.21C167.94 204.43 167.13 204.2 167.01 203.7C166.88 203.2 167.48 202.61 168.34 202.39Z" fill="white"/>
<path opacity="0.6" d="M165.34 197.74C166.2 197.52 167.01 197.75 167.13 198.24C167.26 198.75 166.66 199.33 165.8 199.55C164.93 199.77 164.13 199.54 164 199.04C163.87 198.54 164.47 197.96 165.34 197.74Z" fill="white"/>
<path opacity="0.6" d="M166.1 192.54C166.97 192.32 167.78 192.55 167.9 193.05C168.03 193.55 167.43 194.13 166.56 194.35C165.7 194.57 164.89 194.34 164.77 193.84C164.64 193.34 165.24 192.76 166.1 192.54Z" fill="white"/>
<path opacity="0.6" d="M171.1 194.76C171.96 194.55 172.77 194.77 172.9 195.27C173.02 195.77 172.42 196.36 171.56 196.58C170.69 196.8 169.89 196.57 169.76 196.07C169.64 195.57 170.23 194.98 171.1 194.76Z" fill="white"/>
<path opacity="0.6" d="M173.14 199.51C174.01 199.29 174.81 199.52 174.94 200.02C175.06 200.52 174.46 201.1 173.6 201.32C172.73 201.54 171.93 201.31 171.8 200.81C171.67 200.31 172.27 199.73 173.14 199.51Z" fill="white"/>
<path opacity="0.6" d="M171.49 189.92C172.35 189.7 173.16 189.93 173.28 190.43C173.41 190.93 172.81 191.51 171.95 191.74C171.08 191.95 170.28 191.73 170.15 191.23C170.02 190.73 170.62 190.14 171.49 189.92Z" fill="white"/>
<path opacity="0.6" d="M177.48 191.79C178.35 191.57 179.16 191.8 179.28 192.3C179.41 192.8 178.81 193.38 177.95 193.6C177.08 193.82 176.28 193.59 176.15 193.09C176.02 192.59 176.62 192.01 177.48 191.79Z" fill="white"/>
<path opacity="0.6" d="M178.87 197.43C179.73 197.21 180.54 197.44 180.66 197.94C180.79 198.44 180.19 199.03 179.32 199.25C178.46 199.46 177.65 199.24 177.53 198.74C177.4 198.24 178 197.65 178.87 197.43Z" fill="white"/>
<path opacity="0.6" d="M184.54 191.88C185.41 191.65 186.21 191.88 186.34 192.38C186.47 192.88 185.87 193.47 185 193.69C184.14 193.91 183.33 193.68 183.21 193.18C183.08 192.68 183.68 192.09 184.54 191.88Z" fill="white"/>
<path d="M178.08 210.5C180.91 200.49 186.63 193.34 190.86 194.53C195.09 195.73 196.23 204.81 193.4 214.83C190.57 224.84 187.63 222.14 183.4 220.94C179.18 219.75 175.26 220.52 178.08 210.5Z" fill="#FEDE00"/>
<path opacity="0.6" d="M189.33 217.15C189.57 216.29 190.18 215.71 190.67 215.85C191.17 215.99 191.37 216.8 191.13 217.66C190.89 218.52 190.29 219.1 189.79 218.96C189.3 218.82 189.09 218.01 189.33 217.15Z" fill="white"/>
<path opacity="0.6" d="M183.8 217.42C184.04 216.56 184.64 215.98 185.13 216.12C185.63 216.26 185.84 217.07 185.59 217.93C185.35 218.79 184.75 219.37 184.25 219.23C183.76 219.09 183.55 218.28 183.8 217.42Z" fill="white"/>
<path opacity="0.6" d="M179.68 214.16C179.92 213.3 180.52 212.72 181.01 212.86C181.51 213 181.72 213.81 181.48 214.67C181.23 215.53 180.63 216.11 180.14 215.97C179.64 215.83 179.43 215.02 179.68 214.16Z" fill="white"/>
<path opacity="0.6" d="M184.1 210.94C184.34 210.09 184.94 209.5 185.44 209.64C185.94 209.78 186.14 210.59 185.9 211.45C185.66 212.31 185.06 212.9 184.56 212.76C184.06 212.61 183.86 211.8 184.1 210.94Z" fill="white"/>
<path opacity="0.6" d="M189.23 211.55C189.48 210.69 190.07 210.11 190.57 210.25C191.07 210.39 191.27 211.2 191.03 212.06C190.79 212.92 190.19 213.5 189.69 213.36C189.2 213.22 188.99 212.41 189.23 211.55Z" fill="white"/>
<path opacity="0.6" d="M180.1 208.19C180.35 207.33 180.94 206.75 181.44 206.89C181.94 207.03 182.14 207.84 181.9 208.7C181.66 209.56 181.06 210.14 180.56 210C180.07 209.86 179.86 209.05 180.1 208.19Z" fill="white"/>
<path opacity="0.6" d="M184.72 203.93C184.96 203.07 185.56 202.48 186.06 202.62C186.56 202.76 186.76 203.58 186.52 204.44C186.27 205.29 185.68 205.88 185.18 205.74C184.68 205.6 184.47 204.79 184.72 203.93Z" fill="white"/>
<path opacity="0.6" d="M190.3 205.55C190.54 204.7 191.14 204.11 191.63 204.25C192.13 204.39 192.34 205.2 192.1 206.06C191.85 206.92 191.25 207.5 190.76 207.36C190.26 207.22 190.05 206.41 190.3 205.55Z" fill="white"/>
<path opacity="0.6" d="M188.32 197.86C188.56 197 189.16 196.42 189.66 196.56C190.16 196.7 190.36 197.51 190.12 198.37C189.88 199.22 189.28 199.81 188.78 199.67C188.29 199.53 188.08 198.72 188.32 197.86Z" fill="white"/>
<path d="M201.22 212.77C193.96 205.31 190.63 196.78 193.78 193.71C196.93 190.65 205.37 194.21 212.63 201.67C219.89 209.12 216.08 210.31 212.93 213.38C209.78 216.44 208.48 220.22 201.22 212.77Z" fill="#FEDE00"/>
<path opacity="0.6" d="M212.6 206.35C211.98 205.71 211.77 204.9 212.14 204.54C212.51 204.18 213.32 204.4 213.94 205.04C214.56 205.68 214.77 206.49 214.4 206.85C214.03 207.21 213.23 206.99 212.6 206.35Z" fill="white"/>
<path opacity="0.6" d="M210.07 211.28C209.45 210.64 209.24 209.83 209.61 209.47C209.98 209.11 210.79 209.34 211.41 209.98C212.03 210.62 212.24 211.42 211.87 211.79C211.5 212.15 210.69 211.92 210.07 211.28Z" fill="white"/>
<path opacity="0.6" d="M205.19 213.22C204.56 212.57 204.36 211.76 204.73 211.4C205.1 211.04 205.9 211.27 206.52 211.91C207.15 212.55 207.35 213.36 206.98 213.72C206.61 214.08 205.81 213.85 205.19 213.22Z" fill="white"/>
<path opacity="0.6" d="M204.62 207.78C203.99 207.14 203.79 206.33 204.16 205.97C204.53 205.6 205.33 205.83 205.96 206.47C206.58 207.11 206.78 207.92 206.41 208.28C206.04 208.64 205.24 208.42 204.62 207.78Z" fill="white"/>
<path opacity="0.6" d="M207.71 203.64C207.09 203 206.88 202.19 207.25 201.83C207.62 201.47 208.43 201.69 209.05 202.33C209.67 202.97 209.88 203.78 209.51 204.14C209.14 204.5 208.33 204.28 207.71 203.64Z" fill="white"/>
<path opacity="0.6" d="M200.23 209.86C199.61 209.22 199.4 208.41 199.77 208.05C200.14 207.69 200.95 207.92 201.57 208.56C202.19 209.2 202.4 210.01 202.03 210.37C201.66 210.72 200.85 210.5 200.23 209.86Z" fill="white"/>
<path opacity="0.6" d="M198.85 203.73C198.22 203.09 198.02 202.28 198.39 201.92C198.76 201.56 199.56 201.79 200.19 202.43C200.81 203.07 201.01 203.88 200.64 204.24C200.27 204.6 199.47 204.37 198.85 203.73Z" fill="white"/>
<path opacity="0.6" d="M203.05 199.72C202.42 199.08 202.22 198.26 202.59 197.91C202.96 197.55 203.76 197.77 204.39 198.41C205.01 199.05 205.21 199.86 204.84 200.22C204.47 200.58 203.67 200.36 203.05 199.72Z" fill="white"/>
<path opacity="0.6" d="M195.39 197.58C194.77 196.94 194.56 196.13 194.93 195.77C195.3 195.41 196.11 195.63 196.73 196.27C197.35 196.91 197.56 197.72 197.19 198.08C196.82 198.44 196.02 198.22 195.39 197.58Z" fill="white"/>
<path d="M214.75 193.86C204.67 196.42 195.61 195.04 194.53 190.78C193.45 186.52 200.75 180.99 210.84 178.43C220.93 175.87 220.06 179.77 221.14 184.03C222.22 188.29 224.84 191.3 214.75 193.86Z" fill="#FEDE00"/>
<path opacity="0.6" d="M214.88 180.79C214.02 181.01 213.21 180.79 213.09 180.29C212.96 179.79 213.56 179.2 214.42 178.98C215.29 178.76 216.09 178.99 216.22 179.49C216.35 179.99 215.75 180.57 214.88 180.79Z" fill="white"/>
<path opacity="0.6" d="M217.89 185.45C217.02 185.67 216.22 185.44 216.09 184.94C215.97 184.44 216.57 183.86 217.43 183.64C218.3 183.42 219.1 183.65 219.23 184.15C219.35 184.65 218.76 185.23 217.89 185.45Z" fill="white"/>
<path opacity="0.6" d="M217.12 190.65C216.26 190.87 215.45 190.64 215.33 190.14C215.2 189.64 215.8 189.06 216.66 188.84C217.53 188.62 218.33 188.85 218.46 189.35C218.59 189.85 217.99 190.43 217.12 190.65Z" fill="white"/>
<path opacity="0.6" d="M212.13 188.42C211.26 188.64 210.46 188.42 210.33 187.92C210.2 187.42 210.8 186.83 211.67 186.61C212.53 186.39 213.34 186.62 213.47 187.12C213.59 187.62 212.99 188.21 212.13 188.42Z" fill="white"/>
<path opacity="0.6" d="M210.09 183.68C209.22 183.9 208.42 183.67 208.29 183.17C208.17 182.67 208.76 182.08 209.63 181.87C210.49 181.65 211.3 181.87 211.43 182.38C211.55 182.87 210.95 183.46 210.09 183.68Z" fill="white"/>
<path opacity="0.6" d="M211.74 193.27C210.87 193.48 210.07 193.26 209.94 192.76C209.81 192.26 210.41 191.67 211.28 191.45C212.15 191.24 212.95 191.46 213.08 191.96C213.2 192.46 212.61 193.05 211.74 193.27Z" fill="white"/>
<path opacity="0.6" d="M205.74 191.4C204.88 191.62 204.07 191.39 203.94 190.89C203.82 190.39 204.42 189.81 205.28 189.59C206.15 189.37 206.95 189.59 207.08 190.1C207.2 190.6 206.61 191.18 205.74 191.4Z" fill="white"/>
<path opacity="0.6" d="M204.36 185.76C203.5 185.97 202.69 185.75 202.56 185.25C202.44 184.75 203.04 184.16 203.9 183.94C204.77 183.72 205.57 183.95 205.7 184.45C205.82 184.95 205.23 185.54 204.36 185.76Z" fill="white"/>
<path opacity="0.6" d="M198.68 191.31C197.82 191.53 197.01 191.3 196.89 190.8C196.76 190.3 197.36 189.72 198.22 189.5C199.09 189.28 199.89 189.51 200.02 190.01C200.15 190.51 199.55 191.09 198.68 191.31Z" fill="white"/>
<path opacity="0.3" d="M186.89 187.92C182.18 197.01 173.7 201.97 167.96 198.99C162.21 196.02 161.37 186.23 166.08 177.14C170.8 168.04 179.27 163.09 185.02 166.06C190.76 169.04 191.6 178.82 186.89 187.92Z" fill="white"/>
<path d="M149.1 294.06C69.17 294.06 4.14 229.03 4.14 149.1C4.14 69.17 69.17 4.14001 149.1 4.14001C229.03 4.14001 294.06 69.17 294.06 149.1C294.06 229.03 229.03 294.06 149.1 294.06ZM149.1 14.5C74.88 14.5 14.5 74.88 14.5 149.1C14.5 223.32 74.88 283.7 149.1 283.7C223.32 283.7 283.71 223.32 283.71 149.1C283.71 74.88 223.32 14.5 149.1 14.5Z" fill="#BF946D"/>
<path d="M298.2 171.88C298.2 232.5 295.1 309.94 149.1 309.94C3.10001 309.94 0 232.5 0 171.88C0 111.26 33.13 201.91 149.1 201.91C265.07 201.91 298.2 111.26 298.2 171.88Z" fill="#A97C50"/>
<path d="M85.37 14.33L89.35 33.15C107.26 23.88 127.58 18.64 149.1 18.64C166.93 18.64 183.93 22.24 199.43 28.74L203.34 10.22C186.52 3.62 168.23 0 149.1 0C126.31 0 104.71 5.15 85.37 14.33Z" fill="#895D3A"/>
</svg>
