<svg width="269" height="229" viewBox="0 0 269 229" fill="none" xmlns="http://www.w3.org/2000/svg">
<path d="M88.3861 220.601C103.816 223.581 118.866 228.521 137.636 228.301C164.846 227.991 191.626 221.041 216.736 210.671C226.776 175.681 242.186 141.751 261.266 110.781C184.996 77.0109 81.426 70.0609 8.78605 115.791C25.966 149.301 45.896 180.041 60.346 215.031C70.296 215.641 78.8261 218.761 88.3861 220.601Z" fill="#CF8B2E"/>
<g style="mix-blend-mode:multiply" opacity="0.65">
<path d="M8.78605 115.791C8.78605 115.791 10.0261 118.391 12.4661 123.021C15.5661 121.261 20.796 118.551 28.456 115.571C29.4294 115.198 30.4394 114.818 31.486 114.431C31.526 114.418 31.5661 114.401 31.6061 114.381C32.6327 114.008 33.696 113.631 34.796 113.251C34.856 113.231 34.9161 113.211 34.9761 113.191C36.0827 112.811 37.2227 112.431 38.396 112.051C38.456 112.031 38.5127 112.014 38.566 112.001C39.7594 111.614 40.9961 111.228 42.2761 110.841C42.3161 110.828 42.356 110.814 42.396 110.801C43.696 110.414 45.0361 110.024 46.4161 109.631C46.4294 109.631 46.4427 109.628 46.456 109.621C50.6694 108.434 55.2427 107.291 60.176 106.191C68.646 104.311 78.1361 102.621 88.3061 101.311C90.5461 101.018 92.8194 100.748 95.126 100.501C95.206 100.494 95.2827 100.488 95.3561 100.481C97.5694 100.241 99.8094 100.021 102.076 99.8209C102.236 99.8076 102.396 99.7943 102.556 99.7809C104.796 99.5876 107.053 99.4176 109.326 99.2709C109.413 99.2643 109.503 99.2576 109.596 99.2509C111.969 99.0909 114.359 98.9576 116.766 98.8509C117.626 98.8043 118.486 98.7609 119.346 98.7209C126.156 98.4709 132.826 98.4509 139.216 98.6309C139.209 98.6376 139.206 98.6409 139.206 98.6409C148.126 98.8909 157.166 99.5909 166.246 100.561C166.253 100.561 166.256 100.561 166.256 100.561C174.556 101.441 182.826 102.571 190.846 103.871C190.839 103.871 190.833 103.871 190.826 103.871C199.176 105.221 207.256 106.741 214.796 108.331C224.336 110.341 233.016 112.471 240.546 114.501C241.499 114.754 242.429 115.008 243.336 115.261C243.416 115.288 243.496 115.311 243.576 115.331C244.369 115.551 245.153 115.771 245.926 115.991C246.086 116.038 246.243 116.081 246.396 116.121C247.129 116.334 247.849 116.544 248.556 116.751C248.656 116.778 248.756 116.804 248.856 116.831C251.496 117.604 253.936 118.344 256.176 119.051C257.926 116.041 259.616 113.251 261.266 110.781C184.996 77.0109 81.426 70.0609 8.78605 115.791Z" fill="#EAD69A"/>
</g>
<path d="M88.3861 220.601C103.816 223.581 118.866 228.521 137.636 228.301C164.846 227.991 191.626 221.041 216.736 210.671C226.776 175.681 242.186 141.751 261.266 110.781C180.496 146.671 91.626 139.231 8.78605 115.791C25.966 149.301 45.896 180.041 60.346 215.031C70.296 215.641 78.8261 218.761 88.3861 220.601Z" fill="#E8B36A"/>
<path d="M43.2761 176.441C49.3861 188.221 57.3461 202.421 60.5261 215.761C70.4661 216.381 78.8261 218.761 88.3861 220.601C103.816 223.581 118.866 228.521 137.636 228.301C164.846 227.991 191.626 221.041 216.736 210.671C219.676 200.061 223.986 187.471 229.236 174.611C166.706 195.151 106.466 192.021 43.2761 176.441Z" fill="#E4A956"/>
<g style="mix-blend-mode:multiply" opacity="0.65">
<path d="M143.716 217.131C114.526 219.151 85.416 214.621 57.456 206.351C58.606 209.221 59.636 212.121 60.346 215.031C70.296 215.641 78.8261 218.761 88.3861 220.601C103.816 223.581 118.866 228.521 137.636 228.301C164.846 227.991 191.626 221.041 216.736 210.671C217.726 207.071 218.046 206.111 219.306 202.111C182.956 212.451 160.436 215.981 143.716 217.131Z" fill="#EAD69A"/>
</g>
<g style="mix-blend-mode:multiply" opacity="0.65">
<path d="M38.876 125.111C24.386 122.071 27.0861 120.831 12.2461 115.791C29.4561 149.211 48.9961 180.011 63.1661 215.031C66.5461 215.241 69.7761 215.751 72.9461 216.401C63.1161 185.131 51.066 155.531 38.876 125.111Z" fill="#EAD69A"/>
</g>
<path d="M35.2761 125.101C20.8261 122.051 23.496 120.821 8.78605 115.791C25.966 149.301 45.8961 180.041 60.3361 215.031C63.7561 215.241 67.006 215.751 70.186 216.401C60.076 185.121 47.7161 155.521 35.2761 125.101Z" fill="#FECE9D"/>
<g style="mix-blend-mode:multiply" opacity="0.65">
<path d="M88.1461 133.141C88.2761 138.681 87.936 144.291 88.096 149.671C88.356 158.221 89.096 166.661 90.426 175.251C92.856 190.801 95.616 207.211 99.426 222.271C103.766 223.221 108.136 224.221 112.626 225.141C109.576 195.171 106.506 165.391 107.206 135.201C101.046 134.701 94.6927 134.014 88.1461 133.141Z" fill="#EAD69A"/>
</g>
<g style="mix-blend-mode:multiply" opacity="0.65">
<path d="M82.9961 177.231C81.3061 167.941 80.1661 158.881 79.5561 149.631C79.1761 143.701 79.476 137.541 79.096 131.471C72.7227 130.438 66.1927 129.218 59.5061 127.811C64.5261 158.701 74.9561 188.531 83.7761 218.471C86.4494 219.131 89.1294 219.741 91.816 220.301C88.536 206.351 85.5661 191.341 82.9961 177.231Z" fill="#EAD69A"/>
</g>
<g style="mix-blend-mode:multiply" opacity="0.65">
<path d="M166.376 134.961C159.666 135.571 152.756 136.011 145.656 136.231C143.236 166.761 141.426 197.681 144.316 228.251C148.043 228.171 151.709 227.974 155.316 227.661C156.506 196.451 161.076 165.691 166.376 134.961Z" fill="#EAD69A"/>
</g>
<g style="mix-blend-mode:multiply" opacity="0.65">
<path d="M177.356 133.781C177.356 133.934 177.346 134.091 177.326 134.251C176.886 138.161 175.836 141.831 174.656 145.601C173.306 149.911 172.946 153.981 172.496 158.421C171.546 167.671 170.196 176.891 169.026 186.121C167.326 199.511 164.406 213.101 165.016 226.541C167.843 226.141 170.643 225.674 173.416 225.141C183.096 194.311 190.786 162.661 196.726 130.901C190.556 131.991 184.076 132.961 177.356 133.781Z" fill="#EAD69A"/>
</g>
<path d="M84.266 133.151C85.566 152.541 87.246 172.101 91.486 191.391C93.796 201.871 95.666 212.391 97.936 222.621C101.716 223.471 105.526 224.341 109.406 225.141C106.196 195.181 102.796 165.381 103.206 135.191C97.0794 134.691 90.766 134.011 84.266 133.151Z" fill="#FECE9D"/>
<g style="mix-blend-mode:multiply" opacity="0.65">
<path d="M113.876 134.891C113.716 140.431 113.036 146.031 112.826 151.401C112.506 159.941 112.586 168.371 113.286 176.941C114.556 192.481 116.166 208.861 119.926 223.911C124.566 224.871 129.356 225.871 134.376 226.781C131.806 196.631 130.306 167.161 132.356 136.921C126.396 136.428 120.236 135.751 113.876 134.891Z" fill="#EAD69A"/>
</g>
<path d="M111.236 134.911C111.436 164.661 112.526 195.011 118.316 224.261C118.316 224.261 118.316 224.264 118.316 224.271C122.346 225.111 126.486 225.981 130.796 226.781C128.236 196.671 126.576 167.131 128.466 136.911C122.536 136.421 117.556 135.761 111.236 134.911Z" fill="#FECE9D"/>
<path d="M82.1961 191.371C77.3061 171.481 74.716 151.421 72.796 131.471C66.3427 130.431 59.746 129.201 53.0061 127.781C58.5161 158.751 69.7061 188.481 78.9161 218.471C82.0761 219.231 85.2261 219.991 88.3861 220.601C88.4927 220.621 88.5994 220.644 88.706 220.671C86.646 211.051 84.5961 201.161 82.1961 191.371Z" fill="#FECE9D"/>
<path d="M153.146 190.441C154.119 179.134 155.463 167.864 157.176 156.631C157.986 151.381 158.866 146.141 160.106 140.961C160.586 138.941 161.216 136.951 161.836 134.951C155.106 135.561 148.176 136.011 141.066 136.231C138.706 166.771 137.046 197.681 139.826 228.251C143.353 228.171 146.823 227.991 150.236 227.711C151.296 215.311 152.056 202.861 153.146 190.441Z" fill="#FECE9D"/>
<g style="mix-blend-mode:multiply" opacity="0.65">
<path d="M226.746 124.101C221.126 124.114 215.313 123.911 209.306 123.491C201.806 153.591 193.586 183.831 191.446 214.911C194.239 215.178 197.039 215.334 199.846 215.381C205.796 183.981 216.726 154.311 226.746 124.101Z" fill="#EAD69A"/>
</g>
<path d="M204.756 178.141C207.786 166.981 211.276 155.881 214.976 144.851C216.706 139.701 218.476 134.551 220.476 129.511C221.256 127.551 222.146 125.611 223.016 123.681C217.349 123.701 211.489 123.498 205.436 123.071C198.106 153.181 190.156 183.441 188.126 214.491C190.733 214.738 193.349 214.888 195.976 214.941C198.546 202.721 201.416 190.401 204.756 178.141Z" fill="#FECE9D"/>
<path d="M173.426 133.691C171.416 142.451 168.556 151.071 167.166 160.001C165.376 171.481 163.906 182.981 162.876 194.521C161.926 205.221 161.166 215.931 160.316 226.601C163.323 226.188 166.296 225.701 169.236 225.141C178.896 194.351 186.246 162.661 191.956 130.901C186.046 131.951 179.846 132.891 173.426 133.691Z" fill="#FECE9D"/>
<path d="M241.536 118.451C241.509 118.518 241.483 118.588 241.456 118.661C228.756 149.191 214.986 180.811 207.516 212.691C207.396 213.224 207.276 213.761 207.156 214.301C210.336 213.141 213.529 211.931 216.736 210.671C226.776 175.681 242.186 141.751 261.266 110.781C261.266 110.781 254.366 114.151 241.536 118.451Z" fill="#FECE9D"/>
<g style="mix-blend-mode:multiply" opacity="0.65">
<path d="M42.9761 175.861C44.3061 178.411 46.0961 181.681 47.4661 184.391C107.966 197.531 165.856 200.441 225.926 182.981C226.986 180.208 228.089 177.418 229.236 174.611C166.686 195.111 106.096 191.441 42.9761 175.861Z" fill="#EAD69A"/>
</g>
<path d="M138.426 180.861C105.826 180.251 72.026 173.681 38.486 167.571C40.0994 170.451 41.6961 173.408 43.2761 176.441C106.466 192.021 166.706 195.151 229.236 174.611C230.816 170.758 232.459 166.904 234.166 163.051C203.386 173.261 169.486 181.451 138.426 180.861Z" fill="#FBC77F"/>
<g style="mix-blend-mode:multiply" opacity="0.65">
<path d="M54.236 198.571C55.466 201.391 56.926 205.121 56.926 205.121C112.696 215.091 164.656 214.241 219.756 200.681C219.756 200.681 220.496 198.371 221.386 195.621C164.876 211.311 111.406 210.611 54.236 198.571Z" fill="#EAD69A"/>
</g>
<path d="M138.436 201.051C109.356 201.171 80.0461 196.671 51.1961 191.741C51.1961 191.741 53.416 196.921 54.566 199.271C111.806 211.291 164.896 211.361 221.386 195.621C222.126 193.761 223.426 189.411 224.276 187.361C196.416 195.531 167.276 200.931 138.436 201.051Z" fill="#FBC77F"/>
<g style="mix-blend-mode:multiply" opacity="0.65">
<path d="M32.0261 156.711C33.3461 158.851 34.6861 161.331 36.1061 163.601C103.946 174.501 168.446 174.441 235.676 159.611C236.686 157.311 237.716 155.001 238.906 152.641C169.226 170.161 102.496 169.711 32.0261 156.711Z" fill="#EAD69A"/>
</g>
<path d="M138.646 159.991C102.226 159.451 64.5461 154.061 27.2761 148.971C28.8261 151.391 30.4561 154.171 32.0261 156.711C102.496 169.711 169.226 170.161 238.906 152.641C240.526 149.421 241.896 146.071 243.586 142.851C209.506 152.411 173.016 160.511 138.646 159.991Z" fill="#FBC77F"/>
<path d="M57.9661 208.151C59.2861 211.771 60.4661 215.471 60.9661 217.301C113.446 231.731 163.926 233.351 215.676 214.441C216.146 212.931 217.466 208.151 218.616 204.171C165.126 219.731 111.816 228.011 57.9661 208.151Z" fill="#FBC77F"/>
<g style="mix-blend-mode:multiply" opacity="0.65">
<path d="M248.316 133.521C252.876 124.721 257.226 116.851 261.266 110.781C180.496 146.671 91.626 139.231 8.78605 115.791C8.78605 115.791 12.2661 123.811 20.2161 136.871C97.4361 156.821 172.406 161.181 248.316 133.521Z" fill="#EAD69A"/>
</g>
<path d="M6.25605 125.811C52.9561 136.831 106.216 152.591 152.466 146.711C188.126 142.181 224.566 133.861 260.396 123.081C263.046 115.591 264.266 111.851 266.236 104.361C224.166 114.261 180.446 124.041 139.646 126.581C96.6561 129.271 45.8461 117.971 1.73605 107.321C2.91605 114.711 3.90605 118.411 6.25605 125.811Z" fill="#E8B36A"/>
<path d="M19.2161 111.391C8.27606 108.971 1.73605 107.321 1.73605 107.321C1.98605 108.861 2.11605 109.631 2.42605 111.171C9.12605 116.811 21.556 125.981 30.396 131.241C36.546 132.561 43.5961 134.011 51.1361 135.511C41.1261 129.271 24.9661 118.741 19.2161 111.391Z" fill="#FBC77F"/>
<path d="M61.316 120.261C55.516 119.181 49.836 118.081 44.436 117.001C48.916 122.411 58.086 133.501 66.456 140.271C73.326 141.551 80.3561 142.811 87.3061 143.961C78.2161 138.551 64.676 128.401 61.316 120.261Z" fill="#FBC77F"/>
<path d="M113.376 126.651C105.486 125.751 97.206 125.651 87.906 124.621C94.026 130.501 105.236 140.701 116.826 147.491C125.276 148.431 132.086 147.911 138.856 147.931C131.436 143.651 118.566 134.091 113.376 126.651Z" fill="#FBC77F"/>
<path d="M132.266 126.741C136.566 131.781 145.306 141.151 155.856 146.111C160.449 145.304 164.943 144.551 169.336 143.851C161.746 139.771 150.246 131.421 144.906 126.171C142.036 126.581 133.826 126.721 132.266 126.741Z" fill="#FBC77F"/>
<path d="M160.736 124.621C165.546 129.781 174.826 138.141 183.326 141.681C190.386 140.561 196.796 139.031 204.196 137.621C195.766 134.381 183.006 128.571 175.766 122.721C170.946 123.631 160.736 124.621 160.736 124.621Z" fill="#FBC77F"/>
<path d="M196.766 119.291C200.826 123.591 207.706 128.911 221.436 133.721C227.506 132.271 234.756 131.061 241.586 129.061C234.886 127.521 218.006 123.211 208.766 116.861C204.779 117.681 200.779 118.491 196.766 119.291Z" fill="#FBC77F"/>
<path d="M263.176 114.831C256.856 113.761 248.776 112.091 242.436 109.751C237.856 110.751 232.766 111.851 227.366 112.991C234.016 116.731 244.256 122.091 254.136 125.171C256.206 124.491 258.256 123.821 260.396 123.081C261.566 119.781 262.126 118.131 263.176 114.831Z" fill="#FBC77F"/>
<g style="mix-blend-mode:multiply" opacity="0.55">
<path d="M242.286 109.791C238.896 110.531 235.236 111.321 231.366 112.141C231.359 112.141 231.353 112.144 231.346 112.151C230.066 112.418 228.766 112.691 227.446 112.971C221.516 114.231 215.206 115.541 208.766 116.861C206.286 117.368 203.796 117.871 201.296 118.371C167.666 165.341 105.816 196.041 47.7161 186.981C48.2827 188.074 48.8427 189.171 49.396 190.271C49.656 190.818 49.916 191.368 50.176 191.921C50.186 191.941 52.0361 196.211 53.2161 198.751C54.0661 200.701 60.8561 216.881 60.9661 217.301C113.446 231.731 163.926 233.351 215.676 214.441C216.066 213.181 217.006 209.641 218.016 206.251C218.346 205.151 218.726 203.951 219.306 202.111C219.293 202.118 219.276 202.124 219.256 202.131C219.403 201.651 219.553 201.171 219.706 200.691C219.726 200.684 219.743 200.681 219.756 200.681C219.756 200.681 220.496 198.371 221.386 195.621C221.796 194.591 222.356 192.781 222.946 191.061C223.173 190.421 223.403 189.778 223.636 189.131C223.696 188.971 223.756 188.808 223.816 188.641C224.503 186.754 225.213 184.851 225.946 182.931C226.999 180.178 228.096 177.404 229.236 174.611C230.816 170.758 232.459 166.904 234.166 163.051C234.159 163.058 234.153 163.061 234.146 163.061C235.626 159.731 237.116 156.371 238.656 153.151C238.736 152.984 238.819 152.814 238.906 152.641C239.626 151.211 240.286 149.731 240.966 148.291C241.219 147.758 241.473 147.228 241.726 146.701C242.219 145.654 242.723 144.614 243.236 143.581C244.946 140.151 246.636 136.761 248.316 133.521C249.103 132.001 249.883 130.514 250.656 129.061C251.023 128.374 251.386 127.694 251.746 127.021C251.979 126.588 252.213 126.158 252.446 125.731C255.039 124.898 257.689 124.014 260.396 123.081C263.046 115.591 264.266 111.851 266.236 104.361C266.236 104.361 256.776 106.621 242.286 109.791Z" fill="#D7B386"/>
</g>
<path d="M128.936 0.0309063C128.236 0.0409063 127.466 0.270904 126.806 0.450904C129.136 1.7609 130.866 3.7209 131.936 5.9709C176.046 16.7809 211.216 49.2909 227.696 91.0509C228.256 92.4709 229.436 100.661 230.256 109.031C231.326 119.931 241.696 127.231 253.016 124.571C253.186 124.541 253.266 124.521 253.426 124.481C263.956 122.001 270.836 111.921 268.156 102.001C268.126 101.871 268.106 101.811 268.066 101.681C265.546 92.3309 260.986 83.0709 254.336 76.1109C222.216 42.4709 174.376 -0.159094 128.936 0.0309063Z" fill="#E8B36A"/>
<path d="M129.476 3.58097C129.876 4.25097 130.186 4.95098 130.466 5.66098C142.246 8.36098 152.766 12.381 162.736 17.571C161.236 13.811 159.186 10.151 156.996 6.82097C140.476 0.630971 131.096 -0.189026 128.936 0.0309742C128.236 0.110974 127.583 0.230971 126.976 0.390971C127.876 1.40097 128.766 2.41097 129.476 3.58097Z" fill="#FBC77F"/>
<path d="M184.506 19.531C187.016 24.791 189.506 31.031 191.036 37.351C201.536 46.971 209.916 57.811 216.256 68.201C214.556 59.581 211.466 45.291 207.406 33.831C199.276 28.091 191.586 23.401 184.506 19.531Z" fill="#FBC77F"/>
<path d="M250.436 71.871C243.376 64.3243 236.449 57.541 229.656 51.521C232.466 62.811 235.086 81.331 228.826 96.561C229.786 102.701 230.516 110.781 230.516 110.781C235.756 110.171 238.376 109.871 243.556 109.271C247.686 99.181 251.266 85.281 250.436 71.871Z" fill="#FBC77F"/>
<path d="M0.496048 110.221C9.47605 69.791 55.446 43.471 86.796 23.701C93.946 19.191 117.026 5.341 122.486 2.591C126.196 0.730996 128.016 0.0209961 128.016 0.0209961C130.956 2.761 132.436 4.121 135.396 6.831C90.2161 25.671 47.2961 59.431 30.7161 106.971C18.1561 108.251 12.036 108.891 0.496048 110.221Z" fill="#E8B36A"/>
<path d="M107.886 20.5811C101.496 21.6711 93.416 23.1111 84.926 24.8611C67.206 35.7011 52.6361 45.9811 41.2761 55.3711C50.8961 51.6711 63.976 47.0711 74.566 44.2911C86.266 34.0911 97.9861 26.3511 107.886 20.5811Z" fill="#FBC77F"/>
<path d="M12.0261 123.201C12.1461 123.231 12.2061 123.241 12.3261 123.271C19.6161 125.051 26.256 121.521 28.206 115.081C33.636 97.141 47.996 72.471 56.686 62.301C43.996 69.411 23.046 81.571 7.26604 92.441C4.89604 96.381 2.69605 100.701 0.956047 104.681C-2.34395 112.241 3.27605 121.051 12.0261 123.201Z" fill="#FBC77F"/>
<path d="M27.2461 112.791C25.8961 117.951 19.1961 120.381 12.1061 118.231C5.02606 116.071 0.44605 110.151 2.07605 105.001C3.69605 99.841 10.5761 97.361 17.4461 99.531C24.3161 101.701 28.6061 107.641 27.2461 112.791Z" fill="#FECE9D"/>
<path d="M19.546 108.901C19.746 111.811 16.986 114.171 13.306 114.161C9.63605 114.151 6.43604 111.781 6.25604 108.871C6.06604 105.951 8.95604 103.591 12.616 103.601C16.276 103.611 19.346 105.981 19.546 108.901Z" fill="#E8B36A"/>
<path d="M263.016 108.511C260.956 114.051 253.376 116.681 246.196 114.391C239.026 112.091 234.766 105.771 236.756 100.181C238.756 94.5809 246.396 91.8609 253.606 94.2009C260.826 96.5409 265.066 102.971 263.016 108.511Z" fill="#FECE9D"/>
<path d="M255.506 104.361C255.466 107.491 252.196 110.021 248.256 110.021C244.316 110.021 241.196 107.491 241.236 104.361C241.276 101.231 244.506 98.6409 248.446 98.6409C252.386 98.6409 255.546 101.231 255.506 104.361Z" fill="#E8B36A"/>
</svg>
